<svg 
 xmlns="http://www.w3.org/2000/svg"
 xmlns:xlink="http://www.w3.org/1999/xlink"
 width="13px" height="13px">
<path fill-rule="evenodd"  fill="rgb(169, 168, 168)"
 d="M9.040,7.816 L12.124,10.912 L10.912,12.124 L7.828,9.040 C6.970,9.623 6.000,9.946 4.980,9.946 C3.612,9.946 2.443,9.460 1.471,8.489 C0.500,7.517 0.014,6.348 0.014,4.980 C0.014,3.612 0.500,2.442 1.471,1.471 C2.443,0.500 3.612,0.014 4.980,0.014 C6.348,0.014 7.518,0.500 8.489,1.471 C9.460,2.442 9.946,3.612 9.946,4.980 C9.946,6.008 9.623,6.974 9.040,7.816 ZM7.505,7.505 C8.148,6.861 8.439,5.895 8.439,4.980 C8.439,4.066 8.148,3.159 7.505,2.512 C6.861,1.864 5.895,1.509 4.980,1.509 C4.065,1.509 3.128,1.833 2.481,2.481 C1.833,3.128 1.509,4.066 1.509,4.980 C1.509,5.895 1.833,6.861 2.481,7.505 C3.128,8.148 4.065,8.501 4.980,8.501 C5.895,8.501 6.861,8.148 7.505,7.505 Z"/>
</svg>